<svg width="32" height="33" viewBox="0 0 32 33" fill="none" xmlns="http://www.w3.org/2000/svg">
<path d="M2.3624 13.7406C6.99062 11.1938 11.6188 8.64686 16.2402 6.08628C16.3908 6.00412 16.5757 6.00412 16.7263 6.08628C21.0259 8.45516 24.8668 11.002 29.7004 13.6996C30.0838 13.9186 30.0975 14.4732 29.7141 14.6923C28.1531 15.596 26.1745 16.6504 24.7162 17.3008C24.6682 19.1562 24.6203 21.0116 24.5792 22.8738C24.5724 23.1272 24.5655 23.3873 24.4765 23.627C24.3191 24.0377 23.9425 24.3116 23.5728 24.5375C21.3066 25.9342 18.5749 26.4477 15.9184 26.3108C13.262 26.1738 10.674 25.4207 8.20929 24.4211C8.0039 24.339 7.7985 24.25 7.66842 24.072C7.53834 23.8871 7.5178 23.6475 7.51095 23.4216C7.43564 21.8195 7.36033 20.2174 7.28502 18.6153C7.27817 18.4442 7.26448 18.2593 7.17547 18.1155C7.09332 17.9855 6.96323 17.9033 6.83315 17.8211C5.42277 16.9379 4.01925 16.0479 2.32132 14.9525C1.8763 14.6581 1.89684 13.994 2.3624 13.7406Z" fill="#AB8DDB"/>
<path d="M26.5993 20.2942C26.0859 20.6913 25.9215 21.4308 26.0722 22.0606C26.168 22.4509 26.3734 22.8069 26.4419 23.204C26.6404 24.361 25.6066 25.3743 25.4697 26.5451C25.456 26.6889 25.456 26.8463 25.5381 26.9627C25.6066 27.0517 25.723 27.1065 25.8325 27.1407C26.2365 27.2776 26.6747 27.305 27.0991 27.3324C27.7359 27.3735 28.3794 27.4146 29.0162 27.4488C29.2832 27.4625 29.5776 27.4762 29.783 27.305C30.0637 27.0723 30.0226 26.6341 29.9336 26.2781C29.7898 25.6824 29.5707 25.1073 29.2969 24.5596C29.1257 24.2173 28.9203 23.8065 29.0915 23.4642C29.1668 23.3135 29.3037 23.204 29.4132 23.0739C29.8583 22.5536 29.9199 21.5129 29.6186 20.8967C29.1189 19.815 27.4278 19.6575 26.5993 20.2942Z" fill="#FEDA72"/>
<path d="M7.3667 18.0806C10.1806 19.5868 13.0014 21.0862 15.8153 22.5924C15.9796 22.6814 16.1507 22.7704 16.3356 22.7841C16.5958 22.8047 16.8422 22.6814 17.075 22.5513C19.4302 21.2847 22.1893 19.3883 24.7088 17.7109" stroke="black" stroke-miterlimit="10" stroke-linecap="round" stroke-linejoin="round"/>
<path d="M16.3428 14.1377C19.4442 13.9734 22.5594 14.0624 25.6403 14.391C26.0442 14.4321 26.4687 14.4869 26.8179 14.6717C27.6532 15.1236 27.7422 16.13 27.7353 16.979C27.7285 18.2319 27.7216 19.478 27.7148 20.7309" stroke="black" stroke-miterlimit="10" stroke-linecap="round" stroke-linejoin="round"/>
<path d="M27.1598 23.6276C26.9818 24.6956 26.7422 25.75 26.4409 26.7906" stroke="black" stroke-miterlimit="10" stroke-linecap="round" stroke-linejoin="round"/>
<path d="M28.4473 23.5435C28.4199 24.6184 28.5363 25.7001 28.7896 26.7476" stroke="black" stroke-miterlimit="10" stroke-linecap="round" stroke-linejoin="round"/>
</svg>
