<svg width="32" height="33" viewBox="0 0 32 33" fill="none" xmlns="http://www.w3.org/2000/svg">
<path d="M16.6515 13.6448C14.5306 11.7308 10.1233 11.0273 8.27146 13.1689C5.08499 16.8519 7.06102 21.5902 8.168 23.5352C9.20257 25.3664 10.7751 27.3011 13.4857 27.0941C14.7168 27.001 16.1342 26.2148 16.1342 26.2148C16.1342 26.2148 18.2136 27.0941 19.7138 27.2079C21.3587 27.3321 23.6348 25.9665 24.9487 23.9077C26.066 22.1489 28.9421 13.3551 23.2209 11.855C20.0241 11.0066 18.3688 11.9895 16.6515 13.6448Z" fill="#F89878"/>
<path d="M17.1069 6.60971C15.3584 5.87517 13.341 5.81309 11.4167 6.08208C10.8788 6.14416 10.1649 6.20623 9.08897 6.72351C7.64058 7.41667 6.46117 8.51331 5.45764 9.75479C5.39557 9.82721 5.3335 9.90998 5.3335 10.0031C5.3335 10.0859 5.39557 10.1583 5.4473 10.21C5.94389 10.7376 6.70947 10.9135 7.44401 11.048C11.5099 11.8343 14.8412 10.5824 17.1069 6.60971Z" fill="#32B2A8"/>
<path d="M9.73047 8.22378C12.9997 8.5445 16.4241 7.47889 18.9485 5.35803C17.0655 8.22378 16.2172 11.6999 16.6 15.0312" stroke="#000104" stroke-miterlimit="10" stroke-linecap="round" stroke-linejoin="round"/>
<path d="M14.562 27.2081C15.2241 26.7426 15.7207 26.0494 15.9276 25.2942C16.1863 26.1115 16.8484 26.784 17.6761 27.0736" stroke="#000104" stroke-miterlimit="10" stroke-linecap="round" stroke-linejoin="round"/>
</svg>
